<svg width="25" height="25" viewBox="0 0 25 25" fill="none" xmlns="http://www.w3.org/2000/svg">
<path fill-rule="evenodd" clip-rule="evenodd" d="M1.5625 21.875H23.4375C24.3 21.875 25 21.175 25 20.3125C25 19.45 24.3 18.75 23.4375 18.75H1.5625C0.7 18.75 0 19.45 0 20.3125C0 21.175 0.7 21.875 1.5625 21.875ZM1.5625 14.0625H23.4375C24.3 14.0625 25 13.3625 25 12.5C25 11.6375 24.3 10.9375 23.4375 10.9375H1.5625C0.7 10.9375 0 11.6375 0 12.5C0 13.3625 0.7 14.0625 1.5625 14.0625ZM1.5625 6.25H23.4375C24.3 6.25 25 5.55 25 4.6875C25 3.825 24.3 3.125 23.4375 3.125H1.5625C0.7 3.125 0 3.825 0 4.6875C0 5.55 0.7 6.25 1.5625 6.25Z" fill="black"/>
</svg>
